<svg xmlns="http://www.w3.org/2000/svg" viewBox="0 0 512 512">
  <rect width="512" height="512" rx="96" fill="#2563EB"/>
  <rect x="96" y="64" width="320" height="384" rx="24" fill="white"/>
  <rect x="136" y="120" width="160" height="16" rx="4" fill="#2563EB" opacity="0.8"/>
  <rect x="136" y="156" width="240" height="8" rx="2" fill="#D4D4D8"/>
  <rect x="136" y="180" width="200" height="8" rx="2" fill="#D4D4D8"/>
  <rect x="136" y="204" width="220" height="8" rx="2" fill="#D4D4D8"/>
  <rect x="136" y="248" width="240" height="12" rx="3" fill="#F97316" opacity="0.3"/>
  <rect x="136" y="276" width="240" height="12" rx="3" fill="#F97316" opacity="0.2"/>
  <rect x="136" y="304" width="240" height="12" rx="3" fill="#F97316" opacity="0.3"/>
  <rect x="256" y="344" width="120" height="20" rx="4" fill="#F97316"/>
  <rect x="260" y="349" width="112" height="10" rx="2" fill="white"/>
  <circle cx="400" cy="400" r="80" fill="#F97316"/>
  <path d="M370 400 L395 425 L430 375" stroke="white" stroke-width="12" fill="none" stroke-linecap="round" stroke-linejoin="round"/>
</svg>
