<svg xmlns="http://www.w3.org/2000/svg" viewBox="0 0 512 512">
  <defs>
    <linearGradient id="bg" x1="0%" y1="0%" x2="100%" y2="100%">
      <stop offset="0%" style="stop-color:#2563EB"/>
      <stop offset="100%" style="stop-color:#1D4ED8"/>
    </linearGradient>
  </defs>
  <rect width="512" height="512" rx="96" fill="url(#bg)"/>
  <rect x="140" y="80" width="232" height="300" rx="16" fill="white" opacity="0.95"/>
  <rect x="176" y="130" width="120" height="12" rx="6" fill="#93C5FD"/>
  <rect x="176" y="160" width="160" height="8" rx="4" fill="#BFDBFE"/>
  <rect x="176" y="182" width="140" height="8" rx="4" fill="#BFDBFE"/>
  <rect x="176" y="204" width="155" height="8" rx="4" fill="#BFDBFE"/>
  <rect x="176" y="240" width="80" height="20" rx="4" fill="#DBEAFE"/>
  <rect x="270" y="240" width="60" height="20" rx="4" fill="#DBEAFE"/>
  <rect x="176" y="274" width="80" height="20" rx="4" fill="#DBEAFE"/>
  <rect x="270" y="274" width="60" height="20" rx="4" fill="#DBEAFE"/>
  <rect x="176" y="316" width="160" height="14" rx="4" fill="#DC2626"/>
  <circle cx="360" cy="380" r="72" fill="white"/>
  <circle cx="360" cy="380" r="58" fill="#DC2626"/>
  <circle cx="360" cy="380" r="22" fill="white"/>
  <circle cx="360" cy="380" r="12" fill="#DC2626"/>
  <polygon points="345,340 355,340 350,360 360,360 340,390 348,370 338,370" fill="#FCD34D"/>
</svg>
